<!-- Generator: Adobe Illustrator 24.0.1, SVG Export Plug-In  -->
<svg version="1.1" xmlns="http://www.w3.org/2000/svg" xmlns:xlink="http://www.w3.org/1999/xlink" x="0px" y="0px"
	 width="350.445px" height="369.431px" viewBox="0 0 350.445 369.431" style="enable-background:new 0 0 350.445 369.431;"
	 xml:space="preserve">
<style type="text/css">
	.st0{fill:#FFFFFF;}
</style>
<defs>
</defs>
<g>
	<path class="st0" d="M200.241,105.519c0,0.261-0.255,0.522-0.828,0.522c-0.066,0-0.128,0-0.194-0.044
		c-2.17,0-3.764,1.61-3.764,3.046c0,0.304-0.449,0.522-0.511,0.826c-0.383,1.305-0.959,2.566-1.086,3.872
		c0,0.218,0,0.392-0.128,0.566c-0.766,1.087-1.083,2.35-1.404,3.524c-0.189,0.74-0.828,1.348-0.828,2.045c0,0.043,0,0.087,0,0.13
		c0,0.784-1.405,1.741-1.405,2.915c0,0.044,0,0.131,0,0.218c0,0.869-0.191,1.696-0.638,2.523c-0.511,0.869-0.191,1.957-1.021,2.784
		c-0.638,0.696-0.638,2.132-1.34,3.088c-0.957,1.262-0.766,3.394-1.468,5.134c-0.383,0.871-2.426,0.74-3.83,0.74
		c-0.638,0-1.787,0-1.851-0.392c-0.638-2.393-1.596-4.742-2.426-7.135c-0.638,0-3.766,7.569-4.723,7.569c-0.83,0-1.723,0-2.617,0
		c-2.936,0-2.234-1.957-3.383-3.785c-0.319-0.522-0.191-1.087-0.383-1.609c-0.957-2.35-2.426-4.742-2.553-6.918
		c-0.064-0.913-0.83-1.871-0.83-2.61c0-0.087,0-0.13,0-0.217c0-0.566-0.447-1.871-0.574-1.958c-1.34-0.826-0.894-2.567-1.404-3.611
		c-0.83-1.61-1.404-3.524-1.596-5.134c0-0.131,0-0.218-0.064-0.305c-0.83-0.826-0.574-5.308-4.66-5.569
		c-0.319-0.087-0.957-0.174-0.957-0.479c0-0.566,1.34-0.609,2.043-0.609c1.085,0,2.17,0.174,3.319,0.174c0.191,0,0.319,0,0.511,0
		c0.511,0,1.021,0,1.532,0c0.638,0,1.277-0.087,1.915-0.087c0.383,0,0.766,0,1.085,0c0.447,0,0.83-0.087,1.213-0.087
		c0.191,0,0.383,0.13,0.383,0.261c0,0.305-0.128,0.653-0.766,0.74c-0.894,0.087-1.915,0.61-1.915,1.349
		c0.128,0.869,0.574,1.696,0.638,2.566c0.191,2.219,1.66,4.263,1.787,6.439c0.064,1.348,0.894,2.435,1.085,3.741
		c0.064,0.61,0.957,0.826,0.957,1.392c0,0.174-0.064,0.392-0.064,0.566c0,0.523,0.766,0.784,0.766,1.218
		c0,0.218-0.128,0.435-0.128,0.653c0,1.436,1.532,3.089,1.532,4.437c0,0.261-0.128,0.479-0.128,0.697
		c0,0.566,0.447,1.435,0.894,1.435c0.447,0,0.83-0.087,1.021-0.392c0.319-0.348,1.851-2.522,1.851-3.349
		c0-0.131-0.064-0.262-0.064-0.392c0-0.871,1.723-1.828,1.723-3.132c0-0.088-0.064-0.175-0.064-0.349
		c0-0.304,0.319-0.609,0.319-0.913c0-0.566-0.319-1.131-0.511-1.697c-0.702-2.132-1.787-4.48-2.234-6.612
		c-0.191-0.784-0.638-1.392-0.766-2.132c-0.447-1.784-1.34-3.437-1.34-5.221c0-0.305,0.894-1.262,1.915-1.262
		c3,0,3.574,1.958,3.702,3.22c0.191,2.262,1.723,4.35,1.723,6.525c0,0.74,0.766,1.349,0.766,2.176c0,0.131-0.064,0.305-0.064,0.479
		c0,0.74,0.574,1.392,0.574,2.132c0,0.043,0,0.13,0,0.174c0,0.131,0.064,0.261,0.128,0.348c1.085,1.828,1.66,3.96,1.979,5.829
		c0.191,0.523,0.511,3.916,1.532,3.916c0.511,0,1.468-1.131,1.468-1.871c0.128-1.087,1.915-2.74,1.915-6.308
		c0-0.174,0-0.304,0-0.478c0-1.044,0.766-1.958,0.766-3.002c0.447-1.653,1.34-3.176,1.787-4.873
		c0.447-1.696,1.787-3.567,1.787-5.395c0-1.391-2.362-1.653-2.489-2.088c0-0.74,1.404-0.653,2.17-0.653
		c0.831,0,1.786,0.087,2.68,0.087c0.321-0.087,0.704-0.087,1.021-0.087c0.765,0,1.531,0.044,2.235,0.044
		c1.083,0,2.17-0.088,3.253-0.088c0.511,0,0.894,0.218,1.021,0.523C200.241,105.388,200.241,105.431,200.241,105.519z"/>
	<g>
		<g>
			<path class="st0" d="M71.319,306.534v4.404c0,0.88-0.721,1.6-1.601,1.6h-2.001c-0.641,0-1.281,0.401-1.522,1.041l-12.569,34.988
				c-0.241,0.641-0.801,1.041-1.522,1.041h-4.963c-0.64,0-1.201-0.401-1.442-0.96l-5.124-13.052c0,0,0,0-0.08-0.079l-3.922-11.769
				c-0.24-0.72-1.281-0.72-1.521,0l-3.843,11.93c0,0-0.08,0-0.08,0.079l-4.964,12.81c-0.24,0.641-0.88,1.041-1.521,1.041h-4.963
				c-0.64,0-1.202-0.401-1.442-1.041l-12.89-34.988c-0.24-0.64-0.8-1.041-1.441-1.041H1.905c-0.88,0-1.601-0.72-1.601-1.6v-4.404
				c0-0.88,0.721-1.6,1.601-1.6h15.452c0.88,0,1.521,0.72,1.521,1.6v4.404c0,0.88-0.64,1.6-1.521,1.6h-2.161
				c-0.481,0-0.882,0.482-0.721,1.041l6.965,21.297c0.24,0.72,1.281,0.72,1.521,0l7.126-21.297c0.24-0.559-0.16-1.041-0.721-1.041
				h-1.36c-0.801,0-1.522-0.72-1.522-1.6v-4.404c0-0.88,0.721-1.6,1.522-1.6h15.451c0.88,0,1.601,0.72,1.601,1.6v4.404
				c0,0.88-0.721,1.6-1.601,1.6h-1.201c-0.56,0-0.961,0.482-0.8,1.041l7.445,21.297c0.241,0.72,1.281,0.72,1.522,0l6.724-21.297
				c0.161-0.559-0.24-1.041-0.72-1.041h-2.161c-0.882,0-1.602-0.72-1.602-1.6v-4.404c0-0.88,0.721-1.6,1.602-1.6h15.451
				C70.598,304.934,71.319,305.654,71.319,306.534z"/>
			<path class="st0" d="M118.411,312.538H96.473c-0.88,0-1.601,0.641-1.601,1.523v7.844c0,0.88,0.721,1.602,1.601,1.602h18.655
				c0.8,0,1.521,0.72,1.521,1.6v4.404c0,0.88-0.721,1.521-1.521,1.521H96.473c-0.88,0-1.601,0.72-1.601,1.6v7.847
				c0,0.88,0.721,1.602,1.601,1.602h21.938c0.88,0,1.521,0.72,1.521,1.521v4.402c0,0.883-0.641,1.602-1.521,1.602H88.147
				c-0.88,0-1.601-0.72-1.601-1.602v-33.944c0-0.883-0.721-1.523-1.601-1.523h-1.521c-0.88,0-1.601-0.72-1.601-1.6v-4.404
				c0-0.88,0.721-1.6,1.601-1.6h34.988c0.88,0,1.521,0.72,1.521,1.6v4.404C119.932,311.819,119.291,312.538,118.411,312.538z"/>
			<path class="st0" d="M167.017,304.934h5.204c0.88,0,1.6,0.72,1.6,1.6v41.472c0,0.883-0.72,1.602-1.6,1.602h-2.883
				c-0.48,0-0.88-0.24-1.201-0.641l-21.616-27.541c-0.401-0.641-1.361-0.321-1.361,0.48v26.1c0,0.883-0.721,1.602-1.521,1.602
				h-5.364c-0.882,0-1.602-0.72-1.602-1.602v-33.944c0-0.883-0.641-1.523-1.521-1.523h-1.521c-0.88,0-1.601-0.72-1.601-1.6v-4.404
				c0-0.88,0.721-1.6,1.601-1.6h9.128c0.48,0,0.96,0.24,1.281,0.641l19.935,25.299c0.481,0.641,1.442,0.321,1.442-0.48v-23.859
				C165.416,305.654,166.136,304.934,167.017,304.934z"/>
			<path class="st0" d="M230.515,326.872c0.161,11.287-6.726,22.737-22.338,22.737h-15.931c-0.88,0-1.601-0.72-1.601-1.602V314.22
				c0-0.88-0.72-1.6-1.601-1.6h-1.521c-0.88,0-1.601-0.722-1.601-1.602v-4.483c0-0.88,0.721-1.6,1.601-1.6h20.654
				C223.469,304.934,230.275,315.902,230.515,326.872z M222.188,326.872c-0.24-6.966-4.323-13.932-14.012-13.932h-7.605
				c-0.88,0-1.602,0.722-1.602,1.602v25.38c0,0.88,0.722,1.6,1.602,1.6h7.605C218.345,341.522,222.349,334.076,222.188,326.872z"/>
			<path class="st0" d="M238.692,304.934h9.847c0.88,0,1.6,0.72,1.6,1.6v41.472c0,0.883-0.72,1.602-1.6,1.602h-5.205
				c-0.88,0-1.521-0.72-1.521-1.602v-33.944c0-0.883-0.72-1.523-1.6-1.523h-1.521c-0.88,0-1.602-0.72-1.602-1.6v-4.404
				C237.089,305.654,237.811,304.934,238.692,304.934z"/>
			<path class="st0" d="M304.104,325.269v12.489v4.805v5.443c0,0.801-0.722,1.523-1.602,1.523h-5.124
				c-0.48,0-0.799-0.321-0.799-0.801v-0.079c0-0.242-0.321-0.482-0.561-0.321c-2.802,1.281-6.004,2.241-9.687,2.241
				c-16.814,0-23.619-11.047-23.619-22.737c0-12.57,7.847-24.178,23.619-24.178c5.443,0,10.888,1.922,15.291,5.683
				c0.722,0.561,0.722,1.602,0.081,2.243l-3.044,3.203c-0.559,0.561-1.439,0.561-2.08,0.079c-2.963-2.241-6.806-3.522-10.248-3.522
				c-9.607,0-15.372,7.285-15.372,16.492c0,7.285,4.241,14.892,15.372,14.892c3.282,0,6.165-0.641,9.447-3.123
				c0.401-0.24,0.561-0.72,0.561-1.2v-5.606c0-0.88-0.643-1.521-1.523-1.521h-8.245c-0.88,0-1.602-0.72-1.602-1.6v-4.404
				c0-0.88,0.722-1.521,1.602-1.521h15.931C303.382,323.748,304.104,324.389,304.104,325.269z"/>
			<path class="st0" d="M315.402,320.066c0-11.771,8.566-16.012,17.293-16.012c8.806,0,17.694,4.483,17.694,16.012
				s-8.888,16.092-17.615,16.012C324.129,335.997,315.402,331.835,315.402,320.066z M349.67,343.443v4.483
				c0,0.962-0.722,1.682-1.602,1.682h-30.264c-0.96,0-1.682-0.72-1.682-1.682v-4.483c0-0.88,0.722-1.682,1.682-1.682h30.264
				C348.948,341.762,349.67,342.563,349.67,343.443z M323.167,320.066c0,6.563,4.966,8.087,9.528,8.166
				c4.723,0.079,10.008-1.602,10.008-8.166c0-6.566-5.285-8.327-10.008-8.168C328.051,311.979,323.167,313.5,323.167,320.066z"/>
		</g>
		<g>
			<path class="st0" d="M249.712,356.451h1.477c0.227,0,0.431,0.205,0.431,0.453v11.776c0,0.251-0.205,0.456-0.431,0.456h-1.477
				c-0.251,0-0.456-0.205-0.456-0.456v-4.365c0-0.249-0.205-0.453-0.453-0.453h-4.888c-0.227,0-0.431,0.205-0.431,0.453v4.365
				c0,0.251-0.205,0.456-0.456,0.456h-1.499c-0.251,0-0.434-0.205-0.434-0.456v-9.638c0-0.249-0.202-0.431-0.453-0.431h-0.431
				c-0.251,0-0.456-0.205-0.456-0.453v-1.252c0-0.249,0.205-0.453,0.456-0.453h2.817c0.251,0,0.456,0.205,0.456,0.453v4.365
				c0,0.251,0.205,0.456,0.431,0.456h4.888c0.249,0,0.453-0.205,0.453-0.456v-4.365
				C249.257,356.656,249.461,356.451,249.712,356.451z"/>
			<path class="st0" d="M268.778,356.473h4.138c0.227,0,0.431,0.205,0.431,0.456v1.25c0,0.249-0.205,0.453-0.431,0.453h-0.456
				c-0.227,0-0.431,0.183-0.431,0.434v4.682c0,3.751-2.296,5.661-5.5,5.661c-3.046,0-5.617-1.842-5.617-5.661v-4.682
				c0-0.251-0.203-0.434-0.453-0.434h-0.431c-0.251,0-0.456-0.205-0.456-0.453v-1.25c0-0.251,0.205-0.456,0.456-0.456h4.136
				c0.251,0,0.434,0.205,0.434,0.456v1.25c0,0.249-0.183,0.453-0.434,0.453h-0.431c-0.249,0-0.453,0.183-0.453,0.434v4.682
				c0,2.274,1.294,3.478,3.273,3.478c1.977,0,3.09-1.318,3.09-3.478v-4.682c0-0.251-0.18-0.434-0.431-0.434h-0.431
				c-0.251,0-0.456-0.205-0.456-0.453v-1.25C268.322,356.678,268.527,356.473,268.778,356.473z"/>
			<path class="st0" d="M293.502,362.68c0.046,3.205-1.91,6.456-6.343,6.456h-4.523c-0.251,0-0.456-0.205-0.456-0.456v-9.592
				c0-0.251-0.203-0.456-0.453-0.456h-0.431c-0.251,0-0.456-0.205-0.456-0.453v-1.274c0-0.249,0.205-0.453,0.456-0.453h5.864
				C291.501,356.451,293.434,359.566,293.502,362.68z M291.138,362.68c-0.068-1.979-1.228-3.955-3.979-3.955h-2.159
				c-0.249,0-0.453,0.205-0.453,0.453v7.206c0,0.251,0.205,0.456,0.453,0.456h2.159C290.046,366.84,291.182,364.725,291.138,362.68z
				"/>
			<path class="st0" d="M309.406,359.315c-0.18,0.092-0.407,0.046-0.544-0.09c-0.524-0.614-1.591-1.16-2.798-1.16
				c-1.772,0-2.637,0.751-2.637,1.706c0,1.092,1.318,1.409,2.842,1.591c2.637,0.317,5.093,0.999,5.093,4.023
				c0,2.842-2.5,4.046-5.32,4.046c-2.432,0-4.343-0.704-5.342-2.705c-0.114-0.227-0.024-0.5,0.205-0.614l1.204-0.612
				c0.205-0.114,0.478-0.024,0.592,0.18c0.658,1.114,2.001,1.613,3.387,1.613c1.499,0,2.91-0.522,2.91-1.908
				c0-1.182-1.25-1.682-2.934-1.864c-2.591-0.295-4.979-0.999-4.979-3.841c0-2.593,2.569-3.66,4.91-3.685
				c1.818,0,3.682,0.478,4.728,2.069c0.136,0.227,0.068,0.546-0.158,0.66L309.406,359.315z"/>
			<path class="st0" d="M330.972,362.861c-0.046,3.275-1.591,6.548-6.046,6.548c-4.457,0-6.07-3.205-6.07-6.548
				c0-3.317,1.682-6.682,6.07-6.682C329.29,356.178,331.018,359.544,330.972,362.861z M321.219,362.907
				c0.046,2.091,0.729,4.318,3.707,4.318s3.66-2.249,3.704-4.34c0.024-2.137-0.726-4.525-3.704-4.525
				S321.151,360.77,321.219,362.907z"/>
			<path class="st0" d="M348.514,356.451h1.477c0.249,0,0.453,0.205,0.453,0.453v11.776c0,0.251-0.205,0.456-0.453,0.456h-0.819
				c-0.136,0-0.251-0.068-0.341-0.183l-6.136-7.82c-0.114-0.18-0.387-0.09-0.387,0.136v7.411c0,0.251-0.205,0.456-0.431,0.456
				h-1.523c-0.251,0-0.456-0.205-0.456-0.456v-9.638c0-0.249-0.18-0.431-0.431-0.431h-0.431c-0.251,0-0.456-0.205-0.456-0.453
				v-1.252c0-0.249,0.205-0.453,0.456-0.453h2.591c0.136,0,0.273,0.068,0.363,0.183l5.661,7.182
				c0.136,0.183,0.409,0.092,0.409-0.136v-6.775C348.059,356.656,348.263,356.451,348.514,356.451z"/>
		</g>
		<g>
			<path class="st0" d="M3.594,298.571h4.825c0.216,0,0.391,0.176,0.391,0.392v1.114c0,0.214-0.175,0.39-0.391,0.39H1.543
				c-0.215,0-0.391-0.176-0.391-0.39v-8.285c0-0.214-0.175-0.37-0.391-0.37H0.391c-0.215,0-0.391-0.176-0.391-0.392v-1.074
				c0-0.214,0.176-0.39,0.391-0.39h2.422c0.215,0,0.391,0.176,0.391,0.39v8.225C3.204,298.395,3.38,298.571,3.594,298.571z"/>
			<path class="st0" d="M23.525,291.422h-5.353c-0.215,0-0.391,0.156-0.391,0.37v1.915c0,0.216,0.176,0.392,0.391,0.392h4.552
				c0.196,0,0.371,0.176,0.371,0.39v1.074c0,0.216-0.175,0.372-0.371,0.372h-4.552c-0.215,0-0.391,0.176-0.391,0.392v1.913
				c0,0.216,0.176,0.392,0.391,0.392h5.353c0.215,0,0.371,0.176,0.371,0.37v1.076c0,0.214-0.156,0.39-0.371,0.39H16.14
				c-0.215,0-0.391-0.176-0.391-0.39v-8.285c0-0.214-0.175-0.37-0.391-0.37h-0.371c-0.215,0-0.391-0.176-0.391-0.392v-1.074
				c0-0.214,0.176-0.39,0.391-0.39h8.537c0.215,0,0.371,0.176,0.371,0.39v1.074C23.895,291.246,23.739,291.422,23.525,291.422z"/>
		</g>
	</g>
	<path class="st0" d="M301.993,58.534c8.06-5.697,5.256-25.993,4.556-21.72c-0.701,4.273-4.556,13.531-10.513,18.515
		c-5.957,4.985-9.111,2.136-11.915-4.273c-2.803-6.409-3.154-20.296-4.205-16.735c-4.427,14.995,3.504,24.212,2.453,27.417
		c-1.051,3.205-8.06,8.546-11.214,6.053c-3.154-2.492-4.205-18.515-2.453-22.788c1.752-4.273,3.855-22.432,2.803-28.485
		c-1.051-6.053-8.761-19.228-9.812-16.023c-1.051,3.205,3.855,11.038,4.906,17.447c1.051,6.409-0.701,24.569-6.658,24.925
		c-5.957,0.356-16.47-11.394-18.573-17.447c-2.103-6.053-9.462-14.599-8.761-9.258c0.99,7.545,17.171,29.91,22.778,34.182
		c1.046,0.797,2.019,2.189,2.902,3.968c-0.882-0.655-1.684-1.365-2.467-2.062c-0.985-0.876-2.002-1.781-3.172-2.567
		c-1.885-1.267-4.313-2.212-7.642-2.974c-5.425-1.241-11.327-1.337-17.066-0.276c-0.209,0.039-0.364,0.148-0.436,0.309
		c-0.035,0.077-0.046,0.161-0.037,0.243c-0.106,0.061-0.184,0.146-0.221,0.244c-0.044,0.118-0.026,0.248,0.051,0.366
		c2.661,4.076,7.258,6.807,13.663,8.118c3.166,0.648,6.458,0.879,9.54,0.879c3.128,0,6.039-0.238,8.385-0.518
		c0.037-0.004,0.071-0.012,0.101-0.021c0.031,0.02,0.062,0.039,0.094,0.058c0.008,0.004,0.015,0.005,0.023,0.009
		c3.336,8.099,5.135,21.435,4.342,26.269c-1.051,6.409-11.915,34.894-22.077,41.66c-10.162,6.765-20.675,19.228-26.983,28.129
		c-5.986,8.447-13.424,4.31-13.387,9.419c-0.232-0.013-0.472-0.026-0.718-0.039c-0.062-0.965-0.125-1.93-0.188-2.894
		c-0.819-0.422-1.739-0.537-2.61-0.328c-0.277-0.67-0.555-1.341-0.832-2.011c-5.271,3.57-11.766-3.919-17.557-5.908
		c-0.921,0.586-1.687,1.451-2.314,2.465c-0.627-1.015-1.393-1.88-2.314-2.465c-5.791,1.989-12.286,9.478-17.556,5.908
		c-0.277,0.67-0.555,1.341-0.832,2.011c-0.871-0.209-1.791-0.094-2.61,0.328c-0.043,0.661-0.086,1.321-0.129,1.981
		c-0.906-3.635-7.723-0.617-13.286-8.467c-6.308-8.902-16.821-21.364-26.983-28.129c-10.162-6.765-21.026-35.251-22.077-41.66
		c-0.398-2.424-0.143-6.989,0.63-11.959c1.383-0.409,2.761-0.838,4.136-1.272l-0.009,0.026l0.097,0.034c0,0,0,0,0.001,0l4.591,1.597
		l-0.256,0.842c-0.001,0-0.002,0-0.003,0.001c-0.276,0.113-0.274,0.417-0.126,0.591c0.162,0.191,0.529,0.251,0.791,0.154
		c0.252-0.094,0.341-0.316,0.248-0.507c-0.035-0.073-0.1-0.127-0.174-0.172l0.174-0.573c0.442,0.381,0.905,0.747,1.387,1.099
		c0.198,0.175,0.402,0.358,0.603,0.54c-0.165,0.357-0.026,0.801,0.293,1.081c0.55,0.482,1.604,0.334,2.15-0.051
		c0.612-0.433,0.249-0.879-0.307-1.138c-0.301-0.393-1.008-0.543-1.567-0.354c-0.376-0.343-0.865-0.782-1.319-1.166
		c0.106-0.01,0.216-0.019,0.323-0.029c0.509-0.045,0.941-0.085,1.269-0.117c0.144,0.14,0.347,0.246,0.577,0.298
		c0.479,0.108,0.958-0.135,1.206-0.422c0.098-0.113,0.197-0.321,0.142-0.457c-0.044-0.109-0.212-0.2-0.375-0.263
		c-0.008-0.014-0.013-0.028-0.027-0.043c-0.474-0.469-1.448-0.316-1.69,0.173c-0.365,0.035-0.815,0.076-1.167,0.107
		c-0.971,0.087-1.011,0.092-1.067,0.109c-0.16-0.114-0.291-0.194-0.377-0.224l-4.282-1.489c1.834-0.589,3.658-1.2,5.472-1.829
		c0.752-0.244,1.512-0.493,2.277-0.745l5.508,2.312l1.475,1.667c-0.477,0.456-0.315,1.195,0.392,1.475
		c0.724,0.287,1.664-0.132,1.832-0.694c0.032-0.107,0.028-0.203,0-0.291c-0.001-0.01,0.003-0.019,0.001-0.029
		c-0.129-0.509-0.874-0.854-1.532-0.772l-1.037-1.172c0.54-0.042,1.277-0.102,1.853-0.165c0.106,0.131,0.259,0.241,0.449,0.305
		c0.581,0.195,1.328-0.137,1.351-0.622c0.018-0.377-0.388-0.692-0.861-0.713c-0.271-0.039-0.568,0.01-0.808,0.163
		c-0.067,0.043-0.118,0.092-0.159,0.143c-0.798,0.088-1.986,0.176-2.428,0.208l-0.089-0.101l-4.758-2.106
		c1.016-0.338,2.032-0.68,3.031-1.021c0.719,0.139,4.212,0.83,6.578,1.53l0.018,0.047l0.061-0.024
		c0.727,0.217,1.341,0.435,1.724,0.636c0.176,0.17,0.919,0.879,1.496,1.28c1.279,0.891,2.277,1.519,3.023,1.903
		c-0.004,0.011-0.01,0.022-0.014,0.034c-0.008,0.024-0.006,0.045-0.004,0.065c-0.078,0.144-0.019,0.325,0.142,0.422
		c0.013,0.008,0.028,0.011,0.043,0.016c0.199,0.481,0.882,0.81,1.625,0.704c1.172-0.167,1.348-1.199,0.649-1.788
		c-0.547-0.462-1.392-0.367-1.944-0.013c-0.604-0.295-1.567-0.865-3.115-1.944c-0.152-0.106-0.321-0.24-0.489-0.38
		c0.656-0.134,1.505-0.345,2.035-0.618c0.449,0.073,0.968-0.032,1.272-0.275c0.242-0.195,0.244-0.471,0.095-0.675
		c-0.002-0.056-0.032-0.114-0.11-0.164c-0.295-0.186-0.718-0.371-1.114-0.38c-0.764-0.016-1.158,0.544-0.896,1.029
		c-0.548,0.188-1.325,0.36-1.935,0.468c-0.02-0.007-0.041-0.014-0.061-0.022c-0.136-0.127-0.226-0.215-0.229-0.217l-0.079-0.059
		c-0.262-0.143-0.624-0.29-1.05-0.435l1.299-0.504l-0.002-0.005c0.076-0.007,0.148-0.023,0.21-0.048
		c0.156-0.064,0.201-0.169,0.184-0.277c0.031-0.039,0.041-0.087,0.016-0.144c-0.098-0.221-0.397-0.297-0.681-0.245
		c-0.135,0.024-0.231,0.084-0.288,0.16l-1.858,0.721c-1.807-0.506-4.102-0.964-5.403-1.209c1.103-0.382,2.176-0.76,3.197-1.13
		c0.67,0.165,2.431,0.587,3.373,0.71c0.196,0.213,0.593,0.334,0.921,0.27c0.463-0.09,0.653-0.445,0.567-0.774
		c-0.093-0.357-0.625-0.497-1.048-0.432c-0.18,0.028-0.317,0.107-0.413,0.208c-0.542-0.075-1.4-0.258-2.167-0.434
		c1.476-0.546,2.812-1.067,3.931-1.539l-0.006,0.025c2.526,0.64,6.441,1.667,6.869,1.875c0.437,0.212,1.895,1.056,2.655,1.499
		c0.001,0.003,0,0.006,0.001,0.009c0.158,0.814,1.787,0.918,2.146,0.149c0.116-0.248-0.106-0.488-0.391-0.637
		c-0.007-0.016-0.012-0.032-0.027-0.048c-0.255-0.281-0.713-0.375-1.139-0.27c-0.114,0.028-0.206,0.078-0.288,0.135
		c-0.526-0.306-1.332-0.773-1.943-1.114c0.596-0.182,1.33-0.453,1.765-0.773c0.379,0.059,0.813-0.055,0.985-0.358
		c0.193-0.339-0.145-0.593-0.536-0.666c-0.159-0.09-0.365-0.132-0.565-0.095c-0.38,0.071-0.593,0.367-0.524,0.648
		c0.002,0.008,0.006,0.014,0.008,0.022c-0.505,0.277-1.43,0.572-2.114,0.741c-1.044-0.352-4.251-1.185-5.854-1.596
		c0.372-0.169,0.709-0.33,1.005-0.482c1.552-0.796,3.258-1.779,4.957-2.851c1.087-0.192,4.453-0.831,5.466-1.239
		c0.676,0.222,1.733,0.052,1.62-0.636c-0.077-0.474-0.791-0.549-1.244-0.334c-0.298,0.017-0.563,0.096-0.741,0.315
		c-0.04,0.05-0.062,0.1-0.071,0.149c-0.828,0.244-2.267,0.564-3.472,0.804c2.161-1.317,4.149-2.773,5.858-4.406
		c0.724-0.042,1.836-0.118,2.55-0.24c0.452,0.274,1.252,0.168,1.438-0.331c0.063-0.17,0.008-0.362-0.128-0.507
		c-0.003-0.04-0.02-0.08-0.064-0.116c-0.258-0.214-0.688-0.273-1.04-0.164c-0.286,0.089-0.464,0.284-0.509,0.501
		c-0.442,0.1-1.036,0.208-1.661,0.277c0.159-0.162,0.313-0.328,0.466-0.494c0.983-0.968,1.714-1.863,2.073-2.616
		c0.098-0.147,0.201-0.29,0.295-0.439c0.109-0.174-0.144-0.319-0.324-0.264l-0.001-0.002c0,0.001-0.001,0.002-0.001,0.003
		c-0.047,0.015-0.09,0.04-0.118,0.085c-0.553,0.881-1.183,1.716-1.877,2.511c-0.969,0.934-2.221,1.967-3.646,3.027
		c0.361-0.942,0.703-1.872,0.853-2.388c0.108-0.005,0.214-0.019,0.307-0.055c0.472-0.179,0.588-0.625,0.351-0.957
		c-0.218-0.307-0.809-0.389-1.153-0.174c-0.036,0.012-0.073,0.024-0.108,0.039c-0.396,0.166-0.49,0.52-0.291,0.808
		c0.047,0.067,0.117,0.123,0.196,0.172c-0.087,0.305-0.27,0.869-0.495,1.521c-0.213,0.583-0.427,1.165-0.64,1.747
		c-1.791,1.279-3.786,2.569-5.786,3.741c0.201-0.876,0.568-2.401,0.83-3.055c0.321,0.002,0.644-0.084,0.824-0.282
		c0.265-0.291,0.172-0.707-0.247-0.881c-0.137-0.057-0.325-0.069-0.518-0.05c-0.342-0.044-0.682-0.005-0.946,0.213
		c-0.334,0.275-0.15,0.616,0.18,0.818c-0.398,1.066-0.947,3.598-0.976,3.73c-0.571,0.325-1.137,0.633-1.698,0.932
		c-1.222,0.571-2.465,1.117-3.717,1.638c-1.095,0.456-2.2,0.905-3.31,1.349c-0.181,0.067-0.364,0.133-0.549,0.201
		c0.209-0.573,0.502-1.411,0.783-2.312c0.057-0.073,0.119-0.145,0.186-0.214l4.341-3.823c0.182,0.021,0.377-0.004,0.553-0.073
		c0.368-0.143,0.559-0.508,0.378-0.79c-0.023-0.037-0.052-0.069-0.085-0.1c0.009-0.051-0.01-0.106-0.078-0.151
		c-0.324-0.216-0.826-0.228-1.17-0.026c-0.31,0.181-0.369,0.479-0.237,0.736l-3.493,3.076c0.248-0.935,0.427-1.828,0.434-2.464
		c0.04-0.013,0.082-0.022,0.12-0.039c0.49-0.216,0.627-0.728,0.236-1.047c-0.106-0.087-0.239-0.152-0.381-0.198
		c-0.265-0.189-0.694-0.26-1.022-0.118c-0.527,0.228-0.601,0.737-0.318,1.11c0.148,0.195,0.382,0.305,0.64,0.35
		c-0.05,1.721-1.459,5.551-1.78,6.405c-2.808,1.006-5.976,2.075-9.052,3.083c0.27-0.991,0.845-3.236,0.857-4.4l1.745-1.623
		c0.362,0.072,0.75-0.05,0.982-0.322c0.118-0.139,0.145-0.284,0.116-0.422c0.051-0.042,0.08-0.099,0.05-0.171
		c-0.005-0.012-0.01-0.023-0.014-0.035c0.099-0.068,0.137-0.185,0.007-0.271c-0.421-0.278-1.1-0.315-1.535-0.03
		c-0.327,0.214-0.391,0.555-0.226,0.836l-1.64,1.526l-0.991-0.603c-0.046-0.134-0.166-0.252-0.334-0.314
		c-0.029-0.073-0.106-0.135-0.237-0.134c-0.352,0.002-0.637,0.187-0.731,0.436c-0.109,0.286,0.194,0.545,0.546,0.612
		c0.116,0.022,0.227,0.014,0.33-0.011l1.202,0.732c-0.02,0.306-0.075,0.689-0.151,1.106c-1.106-0.855-2.505-1.981-2.761-2.315
		c-0.171-0.223-0.286-0.452-0.362-0.638c0.047-0.012,0.094-0.027,0.14-0.047c0.338-0.145,0.512-0.483,0.43-0.768
		c0.104-0.051,0.159-0.147,0.064-0.244c-0.31-0.313-0.906-0.43-1.374-0.239c-0.463,0.188-0.599,0.608-0.358,0.951
		c0.075,0.107,0.179,0.195,0.299,0.26c0.066,0.229,0.235,0.708,0.586,1.167c0.397,0.518,2.505,2.151,3.178,2.667
		c-0.215,0.991-0.485,2.01-0.639,2.549l0.025,0.007c-3.052,0.995-5.971,1.919-8.308,2.648l0.65-0.957
		c0.12-0.168,0.235-0.339,0.346-0.51l0.747-1.102l1.856-1.158c0.45,0.14,1.055,0.034,1.244-0.362c0.055-0.116,0.047-0.244,0-0.366
		c0.265,0.132,0.495-0.198,0.232-0.334c-0.411-0.215-0.886-0.404-1.385-0.235c-0.395,0.133-0.641,0.441-0.614,0.763
		c0,0.002,0.001,0.004,0.001,0.006l-1.256,0.784l-0.779-1.1c0.097-0.128,0.118-0.278,0.082-0.421
		c0.055-0.031,0.096-0.077,0.103-0.141c0.046-0.413-0.755-0.499-1.152-0.466c-0.43,0.036-0.727,0.336-0.779,0.64
		c-0.089,0.518,0.526,0.791,1.09,0.714l0.826,1.167l-0.019,0.028c0,0-0.001,0-0.001,0c-0.295-0.022-0.588-0.044-0.883-0.066
		c-0.137-0.01-0.249,0.101-0.245,0.194c0.004,0.113,0.122,0.174,0.259,0.184c0.209,0.016,0.418,0.032,0.627,0.047l-2.046,3.015
		l0.018,0.012c-0.541,0.168-1.036,0.321-1.486,0.46c1.321-7.944,3.927-16.652,7.289-19.214c5.607-4.273,21.788-26.637,22.778-34.182
		c0.701-5.341-6.658,3.205-8.761,9.258c-2.103,6.053-12.615,17.803-18.573,17.447c-5.957-0.356-7.709-18.515-6.658-24.925
		c1.051-6.409,5.957-14.243,4.906-17.447c-1.051-3.205-8.761,9.97-9.812,16.023c-1.051,6.053,1.051,24.212,2.803,28.485
		c1.752,4.273,0.701,20.296-2.453,22.788c-3.154,2.492-10.162-2.849-11.214-6.053c-1.051-3.205,6.88-12.423,2.453-27.417
		c-1.051-3.561-1.402,10.326-4.205,16.735c-2.803,6.409-5.957,9.258-11.915,4.273c-5.957-4.985-9.812-14.243-10.513-18.515
		c-0.701-4.273-3.504,16.023,4.556,21.72c8.06,5.697,22.077,11.394,28.034,21.008c4.581,7.393,12.062,21.944,15.275,30.701
		c-0.786,0.174-2.123,0.358-4.071,0.254c0.794-1.205-0.616-3.473-1.233-4.438c-1.235-1.931-3.117-3.514-5.423-4.645
		c-0.214-0.105-0.354,0.121-0.176,0.278c0.036,0.032,0.117,0.152,0.153,0.197c1.982,2.479,1.77,6.438,4.67,8.415
		c-1.1-0.149-2.338-0.382-3.72-0.733c0.925-1.279,0.384-2.894-0.407-4.163c-1.284-2.061-3.548-3.593-5.812-4.949
		c-0.199-0.119-0.375,0.029-0.259,0.233c0.02,0.035,0.037,0.094,0.058,0.132c0.97,1.753,1.939,3.507,2.91,5.259
		c0.62,1.12,1.258,2.168,2.161,3.12c-0.605-0.175-1.234-0.371-1.888-0.591c0.018-0.03,0.021-0.066-0.002-0.108
		c-0.835-1.514-1.545-3.186-2.715-4.562c-1.164-1.368-3.017-2.369-4.579-3.422c-0.03-0.02-0.062-0.029-0.093-0.033
		c-0.075-0.04-0.167-0.064-0.349-0.11c-0.133-0.034-0.286,0.097-0.226,0.201c1.074,1.863,2.069,4.067,3.683,5.778
		c-1.252-0.679-2.595-1.426-3.748-2.111c0.337-0.846-0.155-1.726-0.638-2.504c-0.865-1.391-2.118-2.58-3.462-3.689
		c-0.067-0.056-0.147-0.054-0.21-0.024c-0.099,0.02-0.184,0.094-0.147,0.195c0.627,1.719,1.378,3.398,2.603,4.871l-0.071,0.055
		l-1.057-0.433c-0.929-0.398-1.87-0.751-2.881-1.023c-1.231-0.331-3.588-0.863-4.231-1.87c-0.042-0.066-0.114-0.084-0.182-0.071
		c-0.004-0.006-0.009-0.011-0.013-0.017c-0.132-0.17-0.457,0.002-0.325,0.172c1.777,2.288,4.802,4.737,8.471,3.519
		c0.024-0.008,0.042-0.019,0.059-0.031c1.135,0.845,2.316,1.664,3.542,2.432c-3.01-0.586-6.331-1.499-8.998,0.218
		c-0.193,0.125-0.004,0.256,0.215,0.26c0,0,0.15-0.01,0.204-0.012c1.777-0.044,3.387,0.522,5.12,0.724
		c1.586,0.184,3.146,0.009,4.641-0.432c0.017-0.005,0.027-0.013,0.04-0.02c0.821,0.48,1.663,0.931,2.521,1.355
		c0.328,0.207,0.634,0.399,0.91,0.572c-2.049-0.171-4.154-0.38-6.158-0.262c-2.247,0.132-4.203,1.101-6.017,2.09
		c-0.198,0.108,0.214,0.284,0.232,0.289c1.195,0.344,2.344,0.21,3.586,0.141c1.549-0.087,2.999,0.234,4.521,0.382
		c2.15,0.209,4.093-0.316,5.261-1.755c0.008,0.005,0.02,0.012,0.024,0.014l0.07,0.031c1.991,0.675,3.759,1.139,5.319,1.45
		c-1.899,0.939-4.139,1.177-6.304,1.601c-2.404,0.47-4.265,1.369-6.203,2.579c-0.003,0.002-0.004,0.005-0.007,0.007
		c-0.17,0.072-0.134,0.317,0.087,0.292c2.989-0.331,6.221-0.432,9.1-1.186c1.939-0.508,3.644-1.532,4.222-3.127
		c1.436,0.246,2.677,0.357,3.73,0.385c-1.206,0.726-2.346,1.53-3.16,2.556c-0.439,0.553-0.785,1.163-0.96,1.805
		c-0.233,0.854-0.044,1.729-0.287,2.58c-0.041,0.143,0.15,0.215,0.278,0.168c0.035,0.001,0.072-0.005,0.109-0.026
		c1.474-0.832,2.795-1.851,3.745-3.087c0.968-1.261,0.871-2.684,1.488-4.002c1.154-0.042,2.007-0.186,2.582-0.322
		c0.781,2.234,1.241,4.025,1.241,5.123c0,5.341-11.915,8.19-23.128,3.561c-11.214-4.629-21.026-13.531-22.427-17.447
		c-1.402-3.917,1.051,21.364,23.829,25.281c22.778,3.917,25.581,3.205,32.59,6.409c7.009,3.205,14.718,9.614,15.069,13.174
		c0.35,3.561-7.709,12.462-18.923,13.531c-11.214,1.068-21.727-7.833-24.18-9.614c-2.453-1.78,4.556,12.818,16.47,14.955
		c11.915,2.136,18.923-0.356,24.88-4.985c5.957-4.629,14.718-0.356,16.47,4.985c1.752,5.341-0.701,13.887-5.256,14.955
		c-4.556,1.068-11.905-5.686-14.718-8.902c-2.803-3.205-2.453,7.833,5.607,12.106c8.06,4.273,14.368,3.561,17.872-2.849
		c2.693-4.925,3.524-8.376,5.196-9.226l-0.355,1.043c0.259,0.053,0.52,0.085,0.778,0.145c3.272,2.731,6.524,5.387,8.799,7.29
		c-0.004,0.461-0.01,0.921-0.005,1.382c-3.156,1.014-5.583,4.8-5.657,8.827c3.539,5.702,4.98,13.315,3.855,20.364
		c2.439,0.652,5.18,1.574,6.345,4.301c0.543,1.271,0.644,2.75,0.735,4.182c0.152,2.387,0.304,4.775,0.457,7.162
		c0.959,0.645,1.519,1.909,1.986,3.129c1.67,4.366,2.79,9.043,3.353,13.821c-0.075,1.073-0.071,2.168-0.055,3.236
		c0.049,3.382,0.099,6.764,0.148,10.147c-0.101,0.958-0.216,1.914-0.364,2.863c0.14,0.1,0.79,0.624,0.79,0.624
		s3.124,3.609,3.943,6.023c-0.221-5.185-0.387-10.374-0.514-15.564c0.053-0.059,0.112-0.112,0.161-0.176
		c0.074-0.098,0.131-0.206,0.19-0.313c0.502,1.659,1.273,3.194,2.258,4.481c0.012-2.192,1.559-4.11,3.281-4.422
		c1.721,0.312,3.269,2.23,3.28,4.422c0.985-1.287,1.756-2.822,2.258-4.481c0.06,0.107,0.116,0.215,0.19,0.313
		c0.049,0.065,0.107,0.117,0.161,0.176c-0.127,5.19-0.293,10.378-0.514,15.564c0.819-2.414,3.943-6.023,3.943-6.023
		s0.379-0.265,0.379-0.301c0.137-0.108,0.27-0.222,0.41-0.322c-0.147-0.949-0.263-1.905-0.364-2.863
		c0.05-3.382,0.099-6.764,0.149-10.147c0.016-1.069,0.02-2.163-0.055-3.236c0.563-4.778,1.683-9.455,3.353-13.821
		c0.466-1.219,1.027-2.484,1.986-3.129c0.152-2.387,0.304-4.774,0.456-7.162c0.091-1.433,0.193-2.911,0.736-4.182
		c1.164-2.727,3.905-3.65,6.344-4.301c-1.125-7.049,0.316-14.662,3.855-20.364c-0.068-3.677-2.1-7.148-4.856-8.496
		c1.944-1.708,6.237-5.189,10.6-8.827c1.003,1.607,1.976,4.362,3.89,7.862c3.504,6.409,9.812,7.121,17.872,2.849
		c8.06-4.273,8.41-15.311,5.607-12.106c-2.813,3.216-10.162,9.97-14.718,8.902c-4.556-1.068-7.009-9.614-5.256-14.955
		c1.752-5.341,10.513-9.614,16.47-4.985c5.957,4.629,12.966,7.121,24.881,4.985c11.915-2.136,18.923-16.735,16.47-14.955
		c-2.453,1.78-12.966,10.682-24.18,9.614c-11.214-1.068-19.274-9.97-18.923-13.531c0.001-0.014,0.005-0.029,0.007-0.042
		c0.862-0.248,2.37-0.632,4.287-0.919c-0.36,1.349,1.702,3.286,2.601,4.112c1.818,1.67,4.17,2.868,6.803,3.535
		c0.244,0.062,0.332-0.249,0.089-0.31c-0.051-0.013-0.101-0.029-0.152-0.042c0.005-0.042-0.011-0.085-0.061-0.123
		c-2.727-2.066-3.736-6.031-7.219-7.419c1.228-0.11,2.562-0.161,3.957-0.114c-0.616,1.483,0.437,3.024,1.641,4.153
		c1.907,1.789,4.621,2.861,7.282,3.759c0.234,0.079,0.421-0.202,0.184-0.282c-0.021-0.007-0.041-0.014-0.062-0.021
		c0.004-0.031-0.003-0.064-0.036-0.098c-1.501-1.546-3.001-3.093-4.502-4.638c-1.021-1.051-2.039-2.016-3.336-2.81
		c0.736,0.055,1.486,0.141,2.243,0.261c0.02,0.018,0.043,0.033,0.072,0.043c-0.04,0.044-0.049,0.102,0.008,0.16
		c1.294,1.336,2.512,2.853,4.094,3.985c1.574,1.127,3.719,1.754,5.591,2.489c0.036,0.014,0.07,0.017,0.103,0.015
		c0.087,0.025,0.185,0.03,0.379,0.041c0.142,0.008,0.254-0.152,0.162-0.243c-1.851-1.847-3.739-4.144-6.286-5.502
		c1.977,0.579,3.728,1.165,5.242,1.717c-0.169,0.964,0.629,1.785,1.384,2.495c1.285,1.208,2.893,2.14,4.566,2.974
		c0.084,0.042,0.162,0.025,0.215-0.018c0.092-0.04,0.153-0.129,0.086-0.222c-1.183-1.624-2.479-3.182-4.217-4.418
		c1.661,0.735,3.266,1.519,4.797,2.314c0.215,0.111,0.398-0.171,0.184-0.282c-0.507-0.263-1.025-0.524-1.547-0.783
		c-0.423-0.261-0.933-0.562-1.533-0.891c0.867,0.162,1.738,0.287,2.64,0.346c1.322,0.086,3.82,0.148,4.768,1.019
		c0.062,0.057,0.139,0.061,0.202,0.034c0.006,0.005,0.012,0.009,0.018,0.014c0.183,0.143,0.453-0.092,0.269-0.234
		c-2.422-1.884-6.085-3.682-9.305-1.915c-1.009-0.503-2.188-1.039-3.529-1.573c2.906,0.012,5.994,0.017,7.898-1.989
		c0.153-0.161-0.138-0.378-0.293-0.215c-0.02,0.021-0.042,0.041-0.062,0.062c-0.038-0.015-0.083-0.022-0.136-0.01
		c-1.747,0.393-3.517,0.15-5.295,0.291c-1.466,0.117-2.82,0.52-4.058,1.133c-1.087-0.382-2.258-0.753-3.516-1.099
		c1.79-0.199,3.6-0.413,5.264-0.85c2.185-0.573,3.825-1.918,5.318-3.255c0.163-0.146-0.098-0.347-0.271-0.229
		c-0.015-0.005-0.029-0.011-0.049-0.012c-1.29-0.105-2.387,0.253-3.597,0.567c-1.508,0.391-3.043,0.359-4.597,0.512
		c-2.162,0.213-3.903,1.094-4.638,2.703c-2.03-0.338-4.011-0.422-5.838-0.362c1.59-1.293,3.726-1.968,5.732-2.81
		c2.237-0.939,3.804-2.196,5.352-3.776c0.003-0.003,0.003-0.006,0.005-0.008c0.146-0.105,0.036-0.34-0.176-0.272
		c-2.859,0.916-6.03,1.652-8.651,2.966c-1.77,0.887-3.146,2.243-3.221,3.945c-1.452,0.089-2.786,0.262-3.942,0.461
		c1.021-0.992,1.959-2.05,2.471-3.278c0.264-0.634,0.42-1.306,0.396-1.977c-0.008-0.223-0.042-0.442-0.09-0.66
		c2.669-2.136,5.889-4.167,8.974-5.578c7.009-3.205,9.812-2.492,32.59-6.409c22.778-3.917,25.231-29.197,23.829-25.281
		c-1.402,3.917-11.214,12.818-22.428,17.447c-11.214,4.629-23.128,1.78-23.128-3.561c0-4.207,6.738-18.572,12.512-29.183
		c0.121-0.025,0.238-0.052,0.362-0.076c0.275-0.054,0.567-0.105,0.868-0.155c0.132,0.503,0.961,1.416,4.588,2.542
		c-0.149,0.295-0.134,0.626,0.038,0.938c0.321,0.584,1.099,0.903,1.823,1.157c0.087,0.03,0.17,0.027,0.241,0.005
		c0.168,0.053,0.411-0.006,0.423-0.186c0.007-0.104-0.001-0.206-0.012-0.308c0.677-0.028,1.31-0.424,1.376-0.947
		c0.065-0.513-0.394-0.948-1.006-1.109c0.102-0.086,0.194-0.18,0.27-0.285c0.147-0.063,0.237-0.222,0.092-0.348
		c-0.939-0.823-2.552-0.506-3.004,0.4c-1.956-0.606-2.989-1.119-3.531-1.48c-0.187-0.16-0.331-0.33-0.424-0.509
		c1.835-0.248,4.085-0.389,6.731-0.267c0.506,0.886,3.386,5.304,11.608,7.864c0.248,0.769,1.501,1.317,2.32,1.707
		c0.61,0.29,1.253,0.538,1.92,0.746c0.738,0.229,1.696,0.308,2.397,0.608c0.016,0.014,0.032,0.027,0.047,0.041
		c0.057,0.05,0.123,0.069,0.188,0.07c0.297,0.157,0.581-0.212,0.287-0.376c-0.045-0.025-0.096-0.045-0.144-0.068
		c-0.356-0.311-0.725-0.619-1.108-0.919c1.199,0.017,2.505-0.556,2.347-1.577c-0.139-0.901-1.388-1.448-2.515-1.536
		c0.434-0.263,0.834-0.589,1.189-1.005c0.106-0.125,0.016-0.243-0.122-0.294c-0.034-0.03-0.078-0.056-0.145-0.067
		c-2.56-0.425-5.125,0.335-6.602,1.931c-6.856-2.175-9.848-5.732-10.771-7.07c2.652,0.178,5.668,0.617,9.04,1.47
		c0.016,0.005,0.032,0.01,0.048,0.015c-0.16,0.633,0.206,1.258,0.873,1.674c0.867,0.541,2.05,0.607,3.134,0.604
		c0.176,0.168,0.612,0.06,0.509-0.178c-0.131-0.303-0.315-0.584-0.54-0.841c0.789-0.135,1.421-0.623,1.376-1.284
		c-0.041-0.603-0.714-1.052-1.464-1.061c0.223-0.207,0.417-0.437,0.57-0.688c0.081-0.133-0.02-0.256-0.156-0.306
		c-0.02-0.01-0.036-0.023-0.061-0.03c-1.731-0.528-3.571,0.116-4.186,1.374c-7.019-1.766-12.559-1.831-16.631-1.308
		c0.573-0.875,1.988-2.504,5.042-3.58l-0.022-0.063c0.016,0.002,0.031,0.005,0.046,0.007c1.299,1.914,5.785,1.007,7.846,0.497
		c0.128-0.032,0.189-0.108,0.2-0.187c0.093-0.077,0.128-0.199,0.013-0.3c-0.252-0.222-0.522-0.409-0.804-0.572
		c0.85-0.551,1.103-1.51,0.512-2.259c-0.646-0.819-2.015-1.079-3.186-0.852c0.162-0.255,0.308-0.518,0.433-0.789
		c0.079-0.171-0.127-0.279-0.315-0.263c-0.041-0.024-0.097-0.035-0.156-0.012c-0.135,0.051-0.27,0.102-0.405,0.153
		c-3.01-0.228-5.412,1.599-4.979,3.898c0.022,0.115,0.131,0.16,0.247,0.157c-0.02,0.014-0.034,0.029-0.046,0.044
		c-3.643,1.392-4.97,3.505-5.328,4.225c-0.176,0.036-0.348,0.076-0.522,0.114c-0.124,0.022-0.24,0.046-0.361,0.068
		c1.388-2.525,2.707-4.808,3.846-6.646C279.916,69.928,293.934,64.231,301.993,58.534z M253.749,51.906l0.021,0.018
		c-0.007,0.069,0.013,0.141,0.063,0.205l1.691,2.2l-1.114-0.29c-0.01-0.041-0.028-0.08-0.054-0.115
		c-0.048-0.065-0.116-0.111-0.198-0.134c-1.372-1.502-2.843-2.99-4.382-4.435C251.256,50.048,252.563,50.888,253.749,51.906z
		 M247.864,48.572c1.805,1.624,3.554,3.343,5.205,5.116l-0.027-0.007c-0.622-0.163-1.244-0.327-1.865-0.491
		c-0.679-0.923-1.319-1.745-1.958-2.512c-0.386-0.463-0.778-0.918-1.165-1.351c-0.067-0.075-0.621-0.624-1.09-1.051
		C247.286,48.375,247.583,48.473,247.864,48.572z M245.507,47.862c0.126,0.032,0.248,0.067,0.37,0.101l0.075,0.021
		c0.133,0.535,0.723,1.081,1.243,1.563c0.23,0.213,0.448,0.414,0.605,0.595c0.721,0.823,1.448,1.721,2.215,2.736
		c-0.456-0.122-0.912-0.245-1.367-0.369l-0.751-0.203l-4.27-4.867C244.275,47.568,244.906,47.71,245.507,47.862z M242.493,47.233
		c0.013,0.031,0.032,0.06,0.055,0.087l4.074,4.644l-0.665-0.179c-0.626-0.168-1.251-0.335-1.875-0.506l-4.057-4.377
		C240.857,46.987,241.684,47.098,242.493,47.233z M239.069,46.816c-0.003,0.08,0.027,0.159,0.087,0.224l3.587,3.87
		c-0.829-0.229-1.657-0.461-2.485-0.692l-0.852-0.238l-3.02-3.283C237.28,46.707,238.18,46.747,239.069,46.816z M235.403,46.697
		c0.011,0.018,0.024,0.035,0.038,0.051l2.631,2.86l-0.488-0.136c-0.626-0.174-1.253-0.348-1.878-0.525
		c-0.955-0.607-1.723-1.339-2.285-2.177C234.089,46.73,234.754,46.705,235.403,46.697z M232.567,46.828
		c0.347,0.572,0.781,1.105,1.296,1.59c-0.153-0.044-0.305-0.088-0.458-0.132l-0.726-0.209l-1.179-1.151
		C231.863,46.888,232.22,46.855,232.567,46.828z M230.573,47.034l0.636,0.62l-0.518-0.148c-0.382-0.109-0.765-0.219-1.147-0.329
		C229.889,47.126,230.233,47.078,230.573,47.034z M228.57,47.422l1.953,0.561c-0.433,0.093-0.853,0.217-1.254,0.372
		C229.016,48.047,228.785,47.734,228.57,47.422z M229.742,48.909c0.603-0.216,1.242-0.358,1.905-0.422l0.621,0.179
		c0.217,0.062,0.433,0.125,0.649,0.187c-0.949,0.057-1.886,0.21-2.8,0.457C229.992,49.18,229.866,49.047,229.742,48.909z
		 M230.693,49.859c1.488-0.361,3.032-0.455,4.593-0.279c0.036,0.004,0.071,0.004,0.105-0.001l0.04,0.026
		c0.089,0.054,0.189,0.072,0.288,0.051c0.397,0.112,0.794,0.222,1.192,0.333l0.033,0.009c-1.746,0.195-3.479,0.454-5.165,0.772
		C231.402,50.481,231.038,50.176,230.693,49.859z M232.532,51.317c2.058-0.369,4.134-0.647,6.179-0.827l0.773,0.216
		c0.88,0.246,1.759,0.492,2.639,0.736c-2.652,0.134-5.245,0.465-7.722,0.985C233.736,52.081,233.11,51.709,232.532,51.317z
		 M235.408,52.918c2.791-0.534,5.628-0.83,8.441-0.88c0.108,0.038,0.23,0.027,0.333-0.03c0.483,0.132,0.968,0.262,1.452,0.391
		l0.173,0.046c-2.576,0.332-5.078,0.864-7.448,1.585C237.326,53.713,236.336,53.34,235.408,52.918z M239.614,54.381
		c2.549-0.711,5.182-1.201,7.838-1.456c0.027-0.003,0.054-0.008,0.08-0.015l0.53,0.143c0.219,0.059,0.438,0.118,0.657,0.177
		c-2.395,0.269-4.713,0.819-6.905,1.639C241.061,54.728,240.323,54.565,239.614,54.381z M246.069,55.433
		c-0.993-0.082-1.953-0.191-2.862-0.326c2.357-0.769,4.853-1.226,7.43-1.361c0.416,0.111,0.831,0.221,1.247,0.331
		c-2.035,0.331-3.976,0.781-5.78,1.342C246.092,55.424,246.08,55.429,246.069,55.433z M249.539,55.596l-0.015,0.004
		c-0.472-0.008-0.94-0.021-1.4-0.039c1.742-0.455,3.56-0.807,5.418-1.047l0.383,0.1c0.057,0.058,0.128,0.094,0.206,0.105
		L249.539,55.596z M253.421,55.538l2.34-0.447l0.531,0.139c0.11,0.029,0.22,0.057,0.33,0.086
		C255.541,55.414,254.471,55.489,253.421,55.538z M256.688,54.632l-0.072-0.093c-0.022-0.063-0.065-0.118-0.121-0.158l-0.208-0.27
		c0.25,0.207,0.506,0.414,0.768,0.617L256.688,54.632z M120.763,66.221c-0.001,0.007,0.002,0.013,0.002,0.02l-0.024-0.028
		C120.75,66.216,120.756,66.22,120.763,66.221z M131.224,50.258c-0.014-0.01-0.023-0.021-0.041-0.029
		C131.217,50.244,131.227,50.253,131.224,50.258z M161.872,203.543c-0.982-1.134-2.189-1.976-3.284-2.966
		c-1.095-0.991-2.118-2.204-2.51-3.733c-0.384-1.496-0.118-3.097,0.149-4.625c0.248-1.415,0.495-2.831,0.743-4.246
		c0.077-0.438,0.176-0.917,0.495-1.177c0.371-0.302,0.912-0.17,1.262,0.161c0.35,0.332,0.554,0.818,0.747,1.288
		c0.864,2.099,1.732,4.213,2.245,6.456C162.377,197.58,162.43,200.637,161.872,203.543z M198.748,192.218
		c0.267,1.529,0.533,3.129,0.149,4.625c-0.392,1.529-1.415,2.743-2.51,3.733c-1.095,0.991-2.302,1.832-3.284,2.966
		c-0.558-2.906-0.505-5.963,0.153-8.842c0.513-2.243,1.382-4.357,2.245-6.456c0.193-0.47,0.397-0.956,0.747-1.288
		c0.35-0.332,0.891-0.464,1.262-0.161c0.318,0.26,0.418,0.739,0.495,1.177C198.253,189.388,198.5,190.803,198.748,192.218z
		 M233.44,145.717c-0.778,0.159-1.442,0.321-1.968,0.462c0.354-0.892,1.033-1.896,1.953-2.949
		C233.45,144.057,233.578,144.88,233.44,145.717z"/>
</g>
</svg>